<svg id="Layer_1" data-name="Layer 1" xmlns="http://www.w3.org/2000/svg" xmlns:xlink="http://www.w3.org/1999/xlink" width="110.11" height="30" viewBox="0 0 110.11 30"><defs><style>.cls-1{fill:url(#linear-gradient);}.cls-2{opacity:0.5;}.cls-3{fill:#fff;}.cls-4{fill:#1b1e51;}</style><linearGradient id="linear-gradient" y1="15" x2="30" y2="15" gradientUnits="userSpaceOnUse"><stop offset="0" stop-color="#3197d6"/><stop offset="1" stop-color="#7e80e7"/></linearGradient></defs><title>Artboard 1</title><path class="cls-1" d="M4.62,0H30a0,0,0,0,1,0,0V25.38A4.62,4.62,0,0,1,25.38,30H9.23A9.23,9.23,0,0,1,0,20.77V4.62A4.62,4.62,0,0,1,4.62,0Z"/><g class="cls-2"><path class="cls-3" d="M22.74,15.27a4.85,4.85,0,0,0,0-6.85h0a4.85,4.85,0,0,0-6.85,0L15,9.3l6.85,6.85Z"/></g><rect class="cls-3" x="10.15" y="11.31" width="9.69" height="9.69" transform="translate(-7.03 15.34) rotate(-45)"/><path class="cls-3" d="M14.11,8.41a4.85,4.85,0,0,0-6.85,6.85l.89.89L15,9.3Zm-2.54,3.74a.58.58,0,0,1-.58.58H8.72a.58.58,0,0,1-.58-.58V9.88a.58.58,0,0,1,.58-.58H11a.58.58,0,0,1,.58.58Z"/><path class="cls-4" d="M42.25,8.18h3.28V9.27h0A3.79,3.79,0,0,1,48.48,8c2.67,0,4.68,2.18,4.68,5.33s-2,5.31-4.85,5.31a3.45,3.45,0,0,1-2.75-1.2l0,0V22.6H42.25Zm7.6,5.14a2.23,2.23,0,0,0-2.2-2.44,2.28,2.28,0,0,0-2.27,2.44,2.25,2.25,0,0,0,2.29,2.42A2.21,2.21,0,0,0,49.85,13.32Z"/><path class="cls-4" d="M54.38,13.32c0-3.15,2-5.33,4.68-5.33A3.67,3.67,0,0,1,61.9,9.27l0,0V8.18h3.3V18.45H62.11V17.38l0,0a3.35,3.35,0,0,1-2.83,1.28C56.42,18.63,54.38,16.49,54.38,13.32Zm7.71,0a2.26,2.26,0,0,0-2.16-2.44,2.23,2.23,0,0,0-2.2,2.44,2.2,2.2,0,0,0,2.2,2.42A2.23,2.23,0,0,0,62.09,13.32Z"/><path class="cls-4" d="M70.51,17.75l-4-9.57H70l2.06,5.52h.06l2-5.52h3.28L72,22.6H68.75Z"/><path class="cls-4" d="M78.7,3H82V9.33l0,0A4.11,4.11,0,0,1,85.19,8c2.12,0,3.7,1,3.7,4.26v6.19H85.61V13.07c0-1.66-.57-2.16-1.72-2.16S82,11.66,82,13.26v5.19H78.7Z"/><path class="cls-4" d="M90.82,5a2,2,0,1,1,2,1.89A1.88,1.88,0,0,1,90.82,5Zm.31,3.17h3.28V18.45H91.13Z"/><path class="cls-4" d="M96.78,8.18h3.28V9.27h0A3.78,3.78,0,0,1,103,8c2.67,0,4.68,2.18,4.68,5.33s-2,5.31-4.85,5.31a3.45,3.45,0,0,1-2.75-1.2l0,0V22.6H96.78Zm7.6,5.14a2.23,2.23,0,0,0-2.21-2.44,2.28,2.28,0,0,0-2.27,2.44,2.25,2.25,0,0,0,2.29,2.42A2.21,2.21,0,0,0,104.38,13.32Z"/></svg>